<svg width="2437" height="2488" viewBox="0 0 2437 2488" fill="none" xmlns="http://www.w3.org/2000/svg">
<g clip-path="url(#clip0_35_65)">
<path fill-rule="evenodd" clip-rule="evenodd" d="M426.824 432.661C526.079 437.377 630.486 474.263 691.088 551.058C747.122 622.064 709.472 722.888 725.478 811.114C738.345 882.044 786.371 944.961 775.474 1016.2C763.401 1095.13 724.911 1170.45 662.601 1222.19C597.341 1276.37 510.905 1321.89 426.824 1305.67C345.331 1289.95 319.945 1186.82 250.319 1142.64C174.138 1094.29 41.3222 1120.78 6.50025 1038.91C-27.6122 958.71 84.0261 888.257 106.378 804.209C131.137 711.108 79.6778 598.633 143.163 525.024C208.935 448.764 324.759 427.811 426.824 432.661Z" fill="#FDC435"/>
</g>
<defs>
<clipPath id="clip0_35_65">
<rect width="2436.93" height="2487.83" fill="white" transform="translate(0.0693359)"/>
</clipPath>
</defs>
</svg>
